<?xml version="1.0" encoding="UTF-8"?>
<!DOCTYPE svg PUBLIC "-//W3C//DTD SVG 1.1//EN" "http://www.w3.org/Graphics/SVG/1.1/DTD/svg11.dtd">
<!-- Creator: CorelDRAW 2018 (64 Bit Versión de evaluación) -->
<svg xmlns="http://www.w3.org/2000/svg" xml:space="preserve" width="274.532mm" height="53.524mm" version="1.1" style="shape-rendering:geometricPrecision; text-rendering:geometricPrecision; image-rendering:optimizeQuality; fill-rule:evenodd; clip-rule:evenodd"
viewBox="0 0 6653.27 1297.15"
 xmlns:xlink="http://www.w3.org/1999/xlink">
 <defs>
  <style type="text/css">
   <![CDATA[
    .fil0 {fill:#4B4B4D}
    .fil1 {fill:#4B4B4D;fill-rule:nonzero}
   ]]>
  </style>
 </defs>
 <g id="Capa_x0020_1">
  <metadata id="CorelCorpID_0Corel-Layer"/>
  <path class="fil0" d="M4611.02 1267.13c785.11,53.06 557.63,-284.89 1160.38,-343.89 91.49,-8.96 649.26,-64.46 693.58,-53.7 43.34,10.52 75.21,59.1 145.9,3.42 45.47,-35.81 38.34,-85.61 38.04,-152.04 -0.5,-109.06 28.31,-277.71 -55.99,-325.13 -66.36,-37.34 -99.71,9.95 -136.81,15.97l-526.14 -40.48c-273.9,-27.43 -381.14,-24.65 -584.71,-163.46 -204.02,-139.12 -221.31,-194.19 -554.38,-193.62 29.27,290.2 -1.66,379.7 -179.87,1252.92z"/>
  <path class="fil1" d="M472.96 531.18c85.01,5.74 151.36,-4.88 199.03,-31.88 47.68,-27 78.41,-64.05 92.19,-111.15 6.89,-20.68 8.33,-39.35 4.31,-56 -4.02,-16.66 -14.07,-29.87 -30.16,-39.63 -16.08,-9.77 -39.63,-14.65 -70.65,-14.65 -31.02,0 -69.5,5.74 -115.46,17.23 -13.78,40.21 -27.28,79.56 -40.49,118.04 -13.21,38.48 -26.14,77.83 -38.77,118.04zm-172.32 485.95c49.4,6.89 93.63,8.33 132.69,4.31 39.06,-4.02 72.66,-12.35 100.81,-24.99 28.15,-12.64 51.12,-29.01 68.93,-49.11 17.81,-20.11 30.16,-42.22 37.05,-66.34 12.64,-43.65 -2.87,-76.97 -46.53,-99.95 -43.65,-22.97 -116.03,-26.42 -217.12,-10.34 -12.64,43.65 -25.27,84.73 -37.91,123.21 -12.64,38.48 -25.27,79.55 -37.91,123.21zm-300.64 -992.3c72.66,-21.64 582.98,-22.23 669.41,-24.39 33.3,-0.83 68.07,1.15 104.25,3.45 36.19,2.3 70.94,8.04 104.26,17.23 34.46,9.19 66.34,22.11 95.64,38.77 29.3,16.66 54.28,37.34 74.96,62.03 20.68,24.7 35.61,53.71 44.8,87.02 9.19,33.32 10.91,71.23 5.17,113.73 -4.59,34.46 -16.37,68.35 -35.32,101.67 -18.96,33.32 -43.08,64.33 -72.38,93.06 -29.3,28.72 -62.61,54.57 -99.95,77.54 -37.34,22.97 -76.68,40.21 -118.04,51.7 34.46,4.59 67.21,13.5 98.22,26.71 31.02,13.21 58.02,31.02 80.99,53.42 22.98,22.4 39.92,49.4 50.84,80.99 10.91,31.59 12.92,67.49 6.03,107.7 -12.64,72.37 -42.79,135.27 -90.47,188.69 -47.68,53.42 -109.42,95.06 -185.24,124.93 -31.02,12.64 -64.33,22.98 -99.95,31.02 -35.61,8.04 -70.94,14.36 -105.98,18.96 -35.04,4.59 -68.64,8.04 -100.81,10.34 -32.17,2.3 -60.89,2.96 -86.16,3.45 -93.06,1.81 -340.27,16.79 -340.27,-22.33 0,-150.17 0,-1016.83 0,-1245.68zm1755.03 3.18c-35.61,106.84 -69.5,211.96 -101.67,315.35 -32.17,103.39 -63.19,205.92 -93.05,307.59 -29.87,101.67 -59.45,203.92 -88.75,306.73 -29.3,102.82 -59.45,207.65 -90.47,314.49 -55.14,-5.74 -111.43,-8.62 -168.87,-8.62 -57.44,0 -113.73,2.87 -168.87,8.62 22.97,-103.39 46.53,-205.06 70.65,-305.01 24.13,-99.95 49.4,-200.47 75.82,-301.56 26.42,-101.09 54.57,-202.76 84.44,-305.01 29.87,-102.24 62.61,-207.36 98.22,-315.35 62.03,-12.64 125.79,-19.24 191.28,-19.82 65.48,-0.57 129.24,0.29 191.27,2.58zm-198.17 1247.61c58.59,-197.6 115.74,-397.78 171.46,-600.54 55.72,-202.76 117.46,-407.54 185.24,-614.33 22.98,-6.89 51.7,-14.07 86.16,-21.54 34.46,-7.47 71.23,-14.36 110.29,-20.68 39.06,-6.32 78.98,-11.2 119.76,-14.65 40.78,-3.45 79.56,-4.59 116.32,-3.45 20.68,1.15 43.08,2.3 67.21,3.45 24.12,1.15 49.11,3.45 74.96,6.89 25.85,3.45 51.7,8.62 77.54,15.51 25.85,6.89 50.26,16.08 73.24,27.57 45.95,24.13 84.44,60.6 115.46,109.42 31.02,48.83 45.95,113.45 44.8,193.86 0,48.25 -7.47,97.36 -22.4,147.33 -14.94,49.97 -37.91,97.36 -68.93,142.16 -31.02,44.8 -70.94,85.59 -119.76,122.35 -48.82,36.76 -106.55,66.63 -173.18,89.61 8.04,21.83 17.52,48.25 28.43,79.27 10.91,31.02 22.97,64.62 36.19,100.81 13.21,36.19 27.28,73.52 42.22,112.01 14.94,38.49 29.3,76.11 43.08,112.87 -33.32,0 -64.62,0 -93.92,0 -29.29,0 -58.3,0.57 -87.02,1.72 -28.72,1.15 -58.02,2.59 -87.88,4.31 -29.87,1.72 -60.89,3.73 -93.06,6.03 -11.49,-27.57 -23.84,-56.87 -37.05,-87.89 -13.21,-31.02 -26.14,-62.61 -38.77,-94.78 -12.64,-32.17 -24.99,-63.76 -37.05,-94.78 -12.06,-31.02 -22.69,-59.74 -31.88,-86.16 -4.59,0 -11.2,-0.29 -19.82,-0.86 -8.62,-0.57 -14.07,-1.44 -16.37,-2.59 -16.08,40.21 -30.73,76.4 -43.94,108.56 -13.21,32.17 -25.27,62.32 -36.19,90.47 -10.91,28.15 -21.83,55.14 -32.74,80.99 -10.91,25.85 -22.11,53.13 -33.6,81.85 -21.83,-1.15 -46.24,-1.72 -73.24,-1.72 -27,0 -54.57,0.29 -82.71,0.86 -28.15,0.57 -56.29,1.43 -84.44,2.58 -28.15,1.15 -54.28,2.3 -78.41,3.45zm535.92 -630.7c51.7,5.74 100.52,3.73 146.47,-6.03 45.95,-9.76 82.71,-27.86 110.29,-54.28 21.83,-20.68 40.49,-46.24 56,-76.68 15.51,-30.44 24.7,-60.6 27.57,-90.47 2.87,-29.87 -2.3,-56.29 -15.51,-79.27 -13.21,-22.97 -37.62,-36.76 -73.24,-41.36 -20.68,-3.45 -45.09,-3.45 -73.24,0 -28.14,3.45 -56,11.49 -83.57,24.13 -16.08,55.14 -31.88,109.13 -47.39,161.98 -15.51,52.84 -31.3,106.84 -47.39,161.98zm616.91 630.7c58.59,-197.6 115.74,-397.78 171.46,-600.54 55.72,-202.76 117.46,-407.54 185.24,-614.33 22.98,-6.89 51.7,-14.07 86.16,-21.54 34.46,-7.47 71.23,-14.36 110.29,-20.68 39.06,-6.32 78.98,-11.2 119.76,-14.65 40.78,-3.45 79.56,-4.59 116.32,-3.45 20.68,1.15 43.08,2.3 67.21,3.45 24.12,1.15 49.11,3.45 74.96,6.89 25.85,3.45 51.7,8.62 77.54,15.51 25.85,6.89 50.26,16.08 73.24,27.57 45.95,24.13 84.44,60.6 115.46,109.42 31.02,48.83 45.95,113.45 44.8,193.86 0,48.25 -7.47,97.36 -22.4,147.33 -14.94,49.97 -37.91,97.36 -68.93,142.16 -31.02,44.8 -70.94,85.59 -119.76,122.35 -48.82,36.76 -106.55,66.63 -173.18,89.61 8.04,21.83 17.52,48.25 28.43,79.27 10.91,31.02 22.97,64.62 36.19,100.81 13.21,36.19 27.28,73.52 42.22,112.01 14.94,38.49 29.3,76.11 43.08,112.87 -33.32,0 -64.62,0 -93.92,0 -29.29,0 -58.3,0.57 -87.02,1.72 -28.72,1.15 -58.02,2.59 -87.88,4.31 -29.87,1.72 -60.89,3.73 -93.06,6.03 -11.49,-27.57 -23.84,-56.87 -37.05,-87.89 -13.21,-31.02 -26.14,-62.61 -38.77,-94.78 -12.64,-32.17 -24.99,-63.76 -37.05,-94.78 -12.06,-31.02 -22.69,-59.74 -31.88,-86.16 -4.59,0 -11.2,-0.29 -19.82,-0.86 -8.62,-0.57 -14.07,-1.44 -16.37,-2.59 -16.08,40.21 -30.73,76.4 -43.94,108.56 -13.21,32.17 -25.27,62.32 -36.19,90.47 -10.91,28.15 -21.83,55.14 -32.74,80.99 -10.91,25.85 -22.11,53.13 -33.6,81.85 -21.83,-1.15 -46.24,-1.72 -73.24,-1.72 -27,0 -54.57,0.29 -82.71,0.86 -28.15,0.57 -56.29,1.43 -84.44,2.58 -28.15,1.15 -54.28,2.3 -78.41,3.45zm535.92 -630.7c51.7,5.74 100.52,3.73 146.47,-6.03 45.95,-9.76 82.71,-27.86 110.29,-54.28 21.83,-20.68 40.49,-46.24 56,-76.68 15.51,-30.44 24.7,-60.6 27.57,-90.47 2.87,-29.87 -2.3,-56.29 -15.51,-79.27 -13.21,-22.97 -37.62,-36.76 -73.24,-41.36 -20.68,-3.45 -45.09,-3.45 -73.24,0 -28.14,3.45 -56,11.49 -83.57,24.13 -16.08,55.14 -31.88,109.13 -47.39,161.98 -15.51,52.84 -31.3,106.84 -47.39,161.98zm842.65 615.19c-109.14,-9.19 -212.53,-9.19 -310.18,0 90.76,-199.89 184.1,-404.09 280.02,-612.6 95.93,-208.51 195.59,-412.71 298.98,-612.6 82.72,-12.64 161.12,-19.82 235.22,-21.54 74.1,-1.72 149.06,-1.44 224.88,0.86 2.3,210.23 4.31,421.33 6.03,633.28 1.72,211.96 -2.01,419.6 -11.2,622.94 -51.7,-2.3 -105.4,-3.45 -161.12,-3.45 -55.72,0 -109.42,2.87 -161.12,8.62 2.3,-35.61 4.02,-71.8 5.17,-108.56 1.15,-36.76 2.3,-73.52 3.45,-110.29 -49.4,2.3 -98.51,3.73 -147.33,4.31 -48.82,0.57 -102.53,3.16 -161.12,7.75 -16.08,31.02 -32.17,62.61 -48.25,94.78 -16.08,32.17 -33.89,64.33 -53.42,96.5z"/>
 </g>
</svg>
